<?xml version="1.0" encoding="UTF-8" standalone="no"?>
<svg
   xmlns:dc="http://purl.org/dc/elements/1.1/"
   xmlns:cc="http://creativecommons.org/ns#"
   xmlns:rdf="http://www.w3.org/1999/02/22-rdf-syntax-ns#"
   xmlns:svg="http://www.w3.org/2000/svg"
   xmlns="http://www.w3.org/2000/svg"
   viewBox="0 0 672.00001 672.00001"
   height="7in"
   width="7in"
   xml:space="preserve"
   id="svg10"
   version="1.1"><metadata
     id="metadata16"><rdf:RDF><cc:Work
         rdf:about=""><dc:format>image/svg+xml</dc:format><dc:type
           rdf:resource="http://purl.org/dc/dcmitype/StillImage" /><dc:title></dc:title></cc:Work></rdf:RDF></metadata><defs
     id="defs14"><circle
       transform="matrix(0.86177143,-0.50729676,-0.50729676,-0.86177143,0,0)"
       r="104.19591"
       cy="-159.96799"
       cx="44.410156"
       id="path256-7"
       style="fill:none;stroke:#000000;stroke-width:0.3000131;stroke-miterlimit:4;stroke-dasharray:none;stroke-opacity:1" /></defs><g
     transform="matrix(1.3333333,0,0,-1.3333333,0,672.00002)"
     id="g18"><g
       style="fill:#000000;fill-opacity:1;stroke:none"
       transform="matrix(2.2195805,0,0,2.2195805,-1.1105049,29.300556)"
       id="g162"><path
         id="path22"
         style="fill:#000000;fill-opacity:1;fill-rule:evenodd;stroke:none;stroke-width:0.1"
         d="m 85.902,77.1449 55.825,0.0352 -27.883,48.2889 z" /><path
         id="path24"
         style="fill:#000000;fill-opacity:1;fill-rule:evenodd;stroke:none;stroke-width:0.1"
         d="m 154.504,87.8281 c -2.801,-20.4609 -20.367,-35.691 -41.016,-35.691 -18.781,0 -35.2259,12.6129 -40.086,30.7379 -0.9329,3.5512 -1.3981,7.102 -1.3981,10.7461 0,22.8909 18.5902,41.4839 41.4841,41.4839 12.707,0 24.852,-5.886 32.7,-15.976 l 24.48,19.152 c -13.734,17.567 -34.852,27.938 -57.18,27.938 -40.086,0 -72.597,-32.516 -72.597,-72.5979 0,-6.3512 0.8391,-12.707 2.5192,-18.7809 C 51.9141,43.168 80.598,21.023 113.488,21.023 c 36.157,0 66.805,26.7231 71.848,62.5083 z" /></g><g
       transform="matrix(-2.2195805,0,0,2.2195805,514.87417,-17.118638)"
       id="text138"
       style="font-style:normal;font-variant:normal;font-weight:normal;font-stretch:normal;font-size:16px;line-height:1.25;font-family:PRIMETIME;-inkscape-font-specification:PRIMETIME;letter-spacing:0px;word-spacing:0px;fill:#000000;fill-opacity:1;stroke:none;stroke-width:0.75"
       aria-label="CUSTOM CULT"><path
         id="path166"
         style="font-size:32px;stroke-width:0.75;fill:#000000;fill-opacity:1;stroke:none"
         d="m 199.08595,134.19053 q 0.59438,-2.68704 2.11257,-4.80923 1.54252,-2.08404 3.67926,-3.4467 2.16108,-1.32451 4.69435,-1.8129 2.56452,-0.48147 5.18908,0.0991 2.62455,0.58056 4.7155,2.09183 2.12219,1.51819 3.49176,3.62369 1.39391,2.14365 1.8823,4.67693 0.51272,2.57143 -0.0817,5.25847 -0.53909,2.43709 -1.94281,4.48628 -1.37247,2.0561 -3.48129,3.58881 l -3.26843,-5.96675 q 1.6819,-1.52883 2.12423,-3.52849 0.29028,-1.31228 0.0392,-2.54767 -0.2511,-1.23539 -0.94626,-2.24128 -0.69515,-1.00588 -1.74754,-1.73027 -1.02114,-0.71748 -2.27093,-0.99394 -1.28103,-0.28337 -2.54075,-0.0704 -1.22849,0.21986 -2.28303,0.83871 -1.02331,0.62575 -1.79637,1.60182 -0.74872,1.01423 -1.039,2.32651 -0.33175,1.49974 0.0723,2.93283 0.39711,1.46433 1.43264,2.70937 l -5.32717,4.22925 q -1.94609,-2.46244 -2.6709,-5.40852 -0.70048,-2.90793 -0.037,-5.90742 z" /><path
         id="path168"
         style="font-size:32px;stroke-width:0.75;fill:#000000;fill-opacity:1;stroke:none"
         d="m 194.73945,167.96921 q -1.47995,-0.82834 -2.51104,-2.06554 -1.04672,-1.20927 -1.60768,-2.69673 -0.5766,-1.45954 -0.68641,-3.09787 -0.0819,-1.62271 0.28071,-3.25333 0.14838,-0.72372 0.39615,-1.42848 0.24778,-0.70476 0.60725,-1.34701 0.35947,-0.64224 0.83063,-1.22197 0.45554,-0.5518 0.99484,-1.05672 1.20031,-1.16175 2.6263,-1.94048 1.45392,-0.7631 3.01515,-1.06275 1.5456,-0.27173 3.13934,-0.0398 1.5781,0.25987 3.05806,1.08821 l 13.73844,7.68953 -3.37589,6.03151 -13.37543,-7.48635 q -0.61432,-0.34384 -1.28554,-0.38948 -0.64328,-0.03 -1.26865,0.17004 -0.59745,0.21567 -1.11779,0.62119 -0.50805,0.44907 -0.83626,1.03547 -0.34384,0.61432 -0.44533,1.25427 -0.0892,0.68351 0.0394,1.30554 0.1565,0.63766 0.51846,1.1703 0.38989,0.54827 1.00421,0.89211 l 13.37543,7.48634 -3.37589,6.03151 z" /><path
         id="path170"
         style="font-size:32px;stroke-width:0.75;fill:#000000;fill-opacity:1;stroke:none"
         d="m 176.91935,172.83943 q 1.78813,-1.74144 3.97753,-3.02498 2.14416,-1.28414 4.48565,-2.09045 0.0459,-0.0446 0.31855,-0.13156 0.29503,-0.064 0.33968,-0.0181 0.0223,0.0229 0.0869,0.2727 0.0646,0.24978 0.1503,0.61299 0.10804,0.38612 0.21488,0.86276 0.12917,0.49955 0.25833,0.99911 0.23542,1.02143 0.4497,1.92944 0.21428,0.90801 0.32232,1.29414 -0.40966,0.17562 -0.84104,0.28306 -1.84074,0.58664 -3.41357,1.44838 -1.57342,0.90699 -2.97183,2.26888 -0.38972,0.37955 -0.80297,0.82667 -0.41384,0.49237 -0.64668,0.98714 -0.23284,0.49476 -0.19418,0.99312 0.0381,0.54361 0.55157,1.07088 0.24559,0.25217 0.56175,0.30161 0.33848,0.0724 0.67876,0.009 0.36261,-0.0405 0.70348,-0.1491 0.34088,-0.10863 0.61418,-0.24079 0.66003,-0.28545 1.25368,-0.68493 0.59365,-0.39948 1.20963,-0.77603 0.8211,-0.48698 1.59695,-0.97456 0.77585,-0.48759 1.5505,-0.88467 0.79758,-0.4194 1.57163,-0.77123 0.77346,-0.30658 1.54512,-0.47741 1.56624,-0.36398 3.12231,0.0413 1.55546,0.45053 3.16294,2.10112 0.55816,0.57311 1.00169,1.25786 0.44293,0.73 0.70426,1.50286 0.52265,1.54572 0.39007,3.01487 -0.13258,1.46916 -0.71588,2.79658 -0.60622,1.34974 -1.5274,2.55954 -0.92118,1.2098 -1.99865,2.25913 -1.7652,1.71911 -3.90876,2.958 -2.12122,1.26181 -4.6178,1.81715 -0.36458,-1.521 -0.72976,-2.99674 -0.36577,-1.43049 -0.75328,-2.92915 1.95477,-0.65303 3.6175,-1.46832 1.63981,-0.79296 3.08407,-2.19951 0.34387,-0.33489 0.68894,-0.76028 0.34447,-0.38014 0.53146,-0.83026 0.18699,-0.45011 0.1254,-0.92615 -0.0393,-0.4531 -0.46346,-0.88867 -0.31257,-0.32095 -0.67338,-0.41624 -0.40606,-0.0959 -1.01964,0.0997 -0.61418,0.2408 -1.38943,0.68313 -0.77525,0.44233 -1.66512,0.99629 -0.86755,0.57689 -1.87086,1.15198 -0.98037,0.55276 -2.02773,1.03676 -1.04795,0.52924 -2.11524,0.8093 -1.06788,0.32531 -2.13158,0.33387 -1.04137,0.0315 -2.05442,-0.36662 -0.76568,-0.28168 -1.46018,-0.81135 -0.67218,-0.50673 -1.25266,-1.10278 -1.69678,-1.74228 -2.08009,-3.5577 -0.38332,-1.81543 0.11546,-3.59655 0.52111,-1.7582 1.71978,-3.41692 1.17635,-1.68164 2.62061,-3.08818 z" /><path
         id="path172"
         style="font-size:32px;stroke-width:0.75;fill:#000000;fill-opacity:1;stroke:none"
         d="m 158.53824,208.68785 5.95978,-3.3074 -9.06818,-16.34043 5.90382,-3.27634 9.06817,16.34043 5.95978,-3.3074 0.60911,0.17433 2.76393,4.98047 -18.60682,10.32592 -2.76393,-4.98047 z" /><path
         id="path174"
         style="font-size:32px;stroke-width:0.75;fill:#000000;fill-opacity:1;stroke:none"
         d="m 135.75742,194.72172 q 2.69802,-0.5424 5.25277,-0.0115 2.55474,0.53089 4.65848,1.90318 2.11004,1.40366 3.61834,3.54845 1.47694,2.15111 2.01303,4.81775 0.53609,2.66665 0.005,5.2214 -0.56226,2.56105 -1.97223,4.63972 -1.40366,2.11003 -3.55476,3.58697 -2.1448,1.50831 -4.84282,2.0507 -2.66664,0.53609 -5.2277,-0.0262 -2.58611,-0.52459 -4.69615,-1.92825 -2.10374,-1.37229 -3.58067,-3.52339 -1.50831,-2.14479 -2.0444,-4.81144 -0.53609,-2.66665 0.0262,-5.2277 0.53089,-2.55475 1.93455,-4.66479 1.40997,-2.07866 3.59244,-3.5619 2.15111,-1.47694 4.81775,-2.01303 z m 3.92923,19.54495 q 1.38038,-0.2775 2.459,-1.08187 1.05356,-0.76668 1.71771,-1.84677 0.66415,-1.08008 0.92014,-2.40451 0.23092,-1.28676 -0.0403,-2.63577 -0.26489,-1.31763 -0.98144,-2.44655 -0.74793,-1.12261 -1.77789,-1.86212 -1.02995,-0.73951 -2.30425,-1.07085 -1.29937,-0.29367 -2.67975,-0.0162 -1.38038,0.2775 -2.43394,1.04419 -1.07862,0.80436 -1.74277,1.88445 -0.66415,1.08008 -0.88877,2.39821 -0.25598,1.32443 0.009,2.64207 0.2712,1.34901 1.01282,2.44024 0.71655,1.12892 1.74651,1.86843 1.02995,0.73951 2.32932,1.03318 1.2743,0.33134 2.65468,0.0538 z" /><path
         id="path176"
         style="font-size:32px;stroke-width:0.75;fill:#000000;fill-opacity:1;stroke:none"
         d="m 100.70131,195.17743 -2.007031,12.60927 6.624221,-7.824 q 0.12499,-0.17452 0.35626,-0.20251 0.23128,-0.028 0.38929,-0.003 0.18961,0.0302 0.40077,0.12859 0.21115,0.0984 0.27578,0.30312 l 3.8677,9.494 2.00703,-12.60927 6.41524,1.02112 -3.9034,24.52329 -6.00441,-0.95573 q -0.31602,-0.0503 -0.49196,-0.36993 l -4.27055,-10.62741 -7.390658,8.77129 q -0.266486,0.24921 -0.550906,0.20393 l -6.036016,-0.96075 3.903396,-24.52329 z" /><path
         id="path178"
         style="font-size:32px;stroke-width:0.75;fill:#000000;fill-opacity:1;stroke:none"
         d="m 71.180289,180.71743 q 2.267758,1.5591 3.665326,3.76259 1.353069,2.21173 1.814524,4.70364 0.416956,2.50014 -0.08077,5.0316 -0.515859,2.55782 -2.038696,4.77284 -1.522837,2.21502 -3.708201,3.58622 -2.203493,1.39757 -4.669028,1.87715 -2.510033,0.48782 -5.041488,-0.01 -2.575953,-0.48949 -4.843712,-2.04858 -2.056803,-1.41406 -3.42965,-3.48406 -1.390976,-2.04363 -2.020535,-4.57344 l 6.757146,-0.79106 q 0.786129,2.13262 2.473763,3.29288 1.10751,0.76142 2.346868,0.99216 1.239358,0.23073 2.432572,-0.0363 1.193213,-0.26699 2.259526,-0.97072 1.048184,-0.67736 1.773344,-1.73213 0.74329,-1.08114 1.018524,-2.32874 0.257105,-1.22123 0.07912,-2.43092 -0.196117,-1.18332 -0.810849,-2.26612 -0.65923,-1.07455 -1.76674,-1.83597 -1.265725,-0.87019 -2.745704,-1.03336 -1.506348,-0.18129 -3.048956,0.31148 l -1.921643,-6.52477 q 3.0127,-0.88007 6.015507,-0.44661 2.958309,0.4417 5.48976,2.18208 z" /><path
         id="path180"
         style="font-size:32px;stroke-width:0.75;fill:#000000;fill-opacity:1;stroke:none"
         d="m 41.480239,164.06351 q 1.32021,-1.06464 2.852538,-1.56039 1.512241,-0.52065 3.101609,-0.48687 1.56928,0.009 3.130516,0.51753 1.536326,0.52875 2.914349,1.47292 0.616294,0.40739 1.177947,0.89996 0.561653,0.49258 1.023668,1.0655 0.462014,0.57292 0.82439,1.22619 0.342288,0.62836 0.609848,1.31699 0.630735,1.54679 0.821941,3.16027 0.166297,1.63356 -0.137465,3.194 -0.323851,1.53553 -1.133026,2.92802 -0.829263,1.36758 -2.149473,2.43222 l -12.25553,9.88309 -4.338919,-5.38048 11.931706,-9.62195 q 0.548012,-0.44193 0.840506,-1.04778 0.267585,-0.58576 0.315006,-1.24063 0.02251,-0.63478 -0.159876,-1.26877 -0.227385,-0.6388 -0.649224,-1.1619 -0.441927,-0.54802 -0.997958,-0.88069 -0.601029,-0.33749 -1.226168,-0.44999 -0.650048,-0.0924 -1.279209,0.045 -0.654071,0.15748 -1.202083,0.5994 l -11.931705,9.62196 -4.338919,-5.38048 z" /><path
         id="path182"
         style="font-size:32px;stroke-width:0.75;fill:#000000;fill-opacity:1;stroke:none"
         d="m 47.28952,155.60344 -22.48466,10.5389 -2.919925,-6.22964 16.921445,-7.93134 -5.541067,-11.82183 5.563215,-2.60756 z" /><path
         id="path184"
         style="font-size:32px;stroke-width:0.75;fill:#000000;fill-opacity:1;stroke:none"
         d="m 17.889939,124.602 1.360218,6.6789 18.312093,-3.72943 1.347446,6.61619 -18.312093,3.72942 1.360218,6.6789 -0.349584,0.52839 -5.581426,1.13671 -4.24669,-20.85196 5.581425,-1.13671 z" /></g></g></svg>